<svg width="50" height="50" viewBox="0 0 50 50" fill="none" xmlns="http://www.w3.org/2000/svg">
<g clip-path="url(#clip0_130_6805)">
<path d="M24.9999 41.1911C34.9717 41.1911 43.0554 33.1074 43.0554 23.1356C43.0554 13.1638 34.9717 5.08002 24.9999 5.08002C15.0281 5.08002 6.94434 13.1638 6.94434 23.1356C6.94434 33.1074 15.0281 41.1911 24.9999 41.1911Z" fill="#C8D4FF"/>
<path d="M33.0601 25.9393C32.9706 25.9393 32.8812 25.9176 32.799 25.8737C32.6179 25.7776 32.5045 25.5887 32.5045 25.3837V21.6209H29.5045C29.1973 21.6209 28.949 21.372 28.949 21.0654V7.72926C28.949 7.42259 29.1973 7.17371 29.5045 7.17371H49.4445C49.7518 7.17371 50.0001 7.42259 50.0001 7.72926V21.0654C50.0001 21.372 49.7518 21.6209 49.4445 21.6209H39.644L33.3701 25.8448C33.2768 25.9076 33.1684 25.9387 33.0601 25.9393ZM30.0595 20.5098H33.0595C33.3668 20.5098 33.6151 20.7587 33.6151 21.0654V24.3404L39.1634 20.6048C39.2551 20.5432 39.3629 20.5104 39.474 20.5104H48.889V8.28482H30.0595V20.5098Z" fill="black"/>
<path d="M35.6 49.7899H14.5495C14.2428 49.7899 13.9939 49.5415 13.9939 49.2343V35.1554C13.9939 34.8482 14.2428 34.5999 14.5495 34.5999H35.6C35.9072 34.5999 36.1556 34.8482 36.1556 35.1554V49.2343C36.1556 49.5415 35.9072 49.7899 35.6 49.7899ZM15.105 48.6787H35.0445V35.711H15.105V48.6787Z" fill="black"/>
<path d="M25.0743 45.157C24.9416 45.157 24.8088 45.1098 24.7032 45.0148L17.6366 38.6726C17.4082 38.4676 17.3893 38.1165 17.5943 37.8882C17.7982 37.6604 18.1499 37.6398 18.3788 37.8459L25.0743 43.8548L31.7699 37.8459C31.9977 37.6409 32.3493 37.6593 32.5543 37.8882C32.7593 38.1165 32.7405 38.4676 32.5121 38.6726L25.4455 45.0148C25.3399 45.1098 25.2071 45.157 25.0743 45.157Z" fill="black"/>
<path d="M15.2897 25.9393C12.1139 25.9393 8.53201 24.0907 5.20062 20.7344C1.81476 17.3735 -0.0337649 13.7605 0.00046706 10.5629C0.0191391 8.73613 0.661767 7.13034 1.80698 6.03958C1.86767 5.9789 1.94235 5.91199 2.0186 5.84975C2.09173 5.78751 2.16797 5.73149 2.24577 5.67703C2.35003 5.6039 2.42316 5.56033 2.49785 5.51676C2.50096 5.51521 2.5492 5.48564 2.55231 5.48564C2.62388 5.44674 2.69546 5.41251 2.76704 5.37828L2.84484 5.34249C2.91174 5.31448 2.98021 5.28803 3.05023 5.26314L3.13736 5.23357C3.20427 5.21179 3.27429 5.19312 3.34431 5.17444L3.44234 5.14955C3.51236 5.1371 3.57615 5.12621 3.64151 5.11532L3.75665 5.09976C3.81889 5.09198 3.88269 5.08575 3.94648 5.08108L4.17677 5.0733L4.25457 5.07486C4.29814 5.07486 4.34326 5.07642 4.38839 5.07953C4.44752 5.0842 4.50509 5.08731 4.56266 5.09509C4.6109 5.09976 4.65602 5.10754 4.7027 5.11532C4.7556 5.1231 4.81006 5.13243 4.86608 5.14488L4.9999 5.17756C5.08236 5.19934 5.12593 5.21023 5.17105 5.22424C5.21929 5.2398 5.26441 5.25536 5.30954 5.27247C5.3889 5.30048 5.42935 5.31604 5.46981 5.33316C5.51804 5.35338 5.56783 5.37672 5.61607 5.40006C5.68609 5.43118 5.72032 5.4483 5.75455 5.46542C5.80279 5.49031 5.84791 5.51832 5.89459 5.54633L5.94594 5.57745L6.02997 5.6288C6.08598 5.66614 6.13578 5.70348 6.18401 5.74238C6.18868 5.7455 6.28982 5.82174 6.29449 5.82485C6.38162 5.89798 6.46409 5.97112 6.54345 6.04892L8.3344 7.83987C8.41532 7.92078 8.49 8.00481 8.56002 8.09039C8.57558 8.10906 8.59426 8.13396 8.61293 8.15885C8.67828 8.24599 8.71874 8.29889 8.75452 8.35335C8.77164 8.37825 8.79031 8.41092 8.80898 8.44204L8.8401 8.49495C8.86811 8.54007 8.89456 8.5852 8.91946 8.63188C8.93657 8.66455 8.95525 8.70345 8.97392 8.74235C9.01437 8.82793 9.03616 8.87306 9.05639 8.91974C9.07195 8.95864 9.08595 8.99753 9.09995 9.03644L9.12018 9.09245C9.13574 9.13291 9.14975 9.17492 9.16219 9.21538C9.1762 9.2605 9.18865 9.30873 9.20109 9.35697C9.22132 9.43166 9.23221 9.47523 9.24155 9.5188C9.25244 9.57326 9.26178 9.62772 9.27112 9.68218C9.2789 9.73041 9.28512 9.77554 9.29134 9.82222C9.29757 9.88134 9.30224 9.94047 9.3069 9.99804C9.31002 10.0416 9.31157 10.0867 9.31313 10.1319C9.31313 10.1941 9.31313 10.2548 9.31157 10.3155L9.30535 10.4368C9.30223 10.5022 9.29601 10.566 9.28823 10.6298L9.27112 10.7449C9.26178 10.8103 9.24933 10.8756 9.23377 10.9425L9.20887 11.0468C9.19331 11.1106 9.17464 11.179 9.15286 11.246C9.1513 11.2522 9.13107 11.3098 9.12796 11.3175C9.09684 11.4078 9.07039 11.4778 9.04083 11.5478C9.03771 11.5525 9.01749 11.5976 9.01437 11.6023C8.97392 11.691 8.93969 11.7625 8.90079 11.8326C8.89768 11.8403 8.87745 11.8746 8.87278 11.8808C8.82454 11.9633 8.78097 12.0364 8.73274 12.108C8.65183 12.2216 8.59581 12.2963 8.53513 12.3694C8.47289 12.4441 8.40598 12.5188 8.3344 12.5903L7.23587 13.6889L12.2493 18.7023L13.3494 17.6022C13.421 17.5306 13.4957 17.4653 13.5703 17.4015C13.6435 17.3408 13.7197 17.2848 13.796 17.2303C13.9002 17.1572 13.9749 17.1121 14.048 17.0701C14.0511 17.0685 14.1025 17.0374 14.1072 17.0358C14.1756 16.9985 14.2472 16.9643 14.3188 16.9316L14.3872 16.8989C14.4619 16.8678 14.5319 16.8413 14.602 16.8164L14.6891 16.7869C14.7576 16.7651 14.8276 16.7464 14.8961 16.7277L15.0003 16.7028C15.061 16.6888 15.1279 16.678 15.1932 16.6671L15.3037 16.6515C15.3722 16.6437 15.436 16.6375 15.4998 16.6328L15.7301 16.625L15.9355 16.6328C15.9993 16.6375 16.0568 16.6422 16.1144 16.6484C16.1626 16.6531 16.2078 16.6608 16.2544 16.6686C16.3089 16.6764 16.3634 16.6857 16.4178 16.6966C16.4707 16.7075 16.5159 16.72 16.5625 16.7324C16.6263 16.748 16.6761 16.762 16.7244 16.7775C16.7726 16.7931 16.8208 16.8102 16.8706 16.8289C16.9406 16.8538 16.9795 16.8678 17.02 16.8849C17.0698 16.9051 17.118 16.9285 17.1678 16.9518C17.2347 16.9829 17.2721 17.0016 17.3063 17.0203C17.353 17.0452 17.3981 17.0716 17.4432 17.0996L17.4961 17.1307L17.5833 17.1852C17.6362 17.221 17.6891 17.2599 17.7404 17.3004C17.7451 17.305 17.8431 17.3782 17.8478 17.3813C17.9318 17.4513 18.0143 17.5244 18.0936 17.6038L19.8846 19.3947C19.9639 19.4741 20.0386 19.5581 20.1087 19.6421C20.1273 19.6655 20.146 19.6904 20.1631 19.7137C20.2285 19.7993 20.2674 19.8522 20.3032 19.9051C20.3218 19.9315 20.3405 19.9627 20.3592 19.9953L20.3934 20.0529C20.4199 20.0965 20.4447 20.1385 20.4681 20.1836C20.4852 20.2163 20.5023 20.2505 20.5179 20.2848C20.5614 20.3766 20.5848 20.4232 20.6035 20.4715C20.6206 20.5119 20.6361 20.5539 20.6501 20.5944C20.6797 20.6738 20.6953 20.7189 20.7093 20.764C20.7248 20.8154 20.7373 20.8651 20.7513 20.9149C20.7653 20.9725 20.7777 21.0192 20.7886 21.0659C20.8011 21.125 20.8104 21.181 20.8182 21.237L20.8384 21.3755C20.8446 21.4346 20.8493 21.4938 20.854 21.5529C20.8571 21.5949 20.8586 21.64 20.8602 21.6852C20.8618 21.7458 20.8618 21.8065 20.8586 21.8688L20.8524 21.9901C20.8478 22.0555 20.8415 22.1193 20.8337 22.1831L20.8166 22.2998C20.8073 22.362 20.7949 22.4274 20.7808 22.4943L20.7606 22.5814C20.7388 22.667 20.7202 22.7355 20.6984 22.8024C20.6968 22.807 20.6782 22.8615 20.6766 22.8662C20.6439 22.9595 20.6175 23.0295 20.5879 23.0996C20.5848 23.1058 20.5661 23.1462 20.563 23.1525C20.521 23.2458 20.4852 23.3174 20.4463 23.3874C20.4432 23.3936 20.4214 23.431 20.4183 23.4372C20.3701 23.5197 20.3265 23.5913 20.2783 23.6628C20.1989 23.7764 20.1429 23.8511 20.0822 23.9227C20.02 23.9989 19.9531 24.0736 19.8815 24.1436C18.7892 25.2982 17.1523 25.9393 15.2897 25.9393ZM19.6465 22.46C19.6605 22.4149 19.673 22.3682 19.6854 22.3216L19.7025 22.25C19.7103 22.2111 19.7197 22.1675 19.7259 22.1224L19.7368 22.0477C19.7414 22.0026 19.7461 21.9606 19.7492 21.917L19.7539 21.8376C19.7554 21.791 19.7554 21.7505 19.7539 21.7101L19.7492 21.6229C19.7461 21.5825 19.7445 21.5436 19.7399 21.5047L19.7259 21.4113C19.7197 21.3693 19.7134 21.3335 19.7057 21.2977L19.5423 20.8122C19.5407 20.8107 19.5174 20.7578 19.5158 20.7562L19.4909 20.7049L19.4038 20.5571C19.3587 20.487 19.3338 20.4544 19.3089 20.4232L19.2653 20.3657C19.2046 20.2894 19.1548 20.2334 19.1019 20.1805L17.311 18.3896C17.2581 18.3366 17.202 18.2869 17.1445 18.2402L17.0807 18.1919C17.0371 18.1577 17.0044 18.1328 16.9718 18.111C16.9686 18.1095 16.8955 18.0659 16.8924 18.0628L16.3027 17.8123L15.9853 17.7516C15.9464 17.7469 15.9059 17.7438 15.867 17.7423L15.7799 17.7376L15.5714 17.7423C15.5293 17.7454 15.4858 17.75 15.4422 17.7547L15.3675 17.7656C15.3224 17.7734 15.2788 17.7812 15.2337 17.7905L15.1808 17.8029C15.1217 17.8185 15.0765 17.8309 15.0314 17.845L14.9739 17.8652C14.9256 17.8823 14.8774 17.8994 14.8307 17.9196C14.7358 17.9632 14.6876 17.9865 14.6409 18.013C14.5553 18.0628 14.5071 18.0924 14.4588 18.125C14.3841 18.1779 14.3328 18.2153 14.2845 18.2573C14.2332 18.2993 14.1834 18.3429 14.1352 18.3911L12.9246 19.6017C12.5621 19.9627 11.9365 19.9611 11.5771 19.6017L6.33805 14.3626C5.96617 13.9907 5.96617 13.387 6.33805 13.0151L7.55018 11.803C7.59841 11.7563 7.64198 11.705 7.68399 11.6552C7.72601 11.6054 7.76335 11.554 7.79914 11.5027C7.84737 11.4327 7.87694 11.3844 7.90495 11.3362C7.95318 11.2522 7.97497 11.2039 7.99675 11.1573L8.02165 11.1059C8.04187 11.0608 8.05744 11.0141 8.07455 10.969L8.09322 10.9099C8.10878 10.8632 8.12123 10.8181 8.13212 10.7714L8.14924 10.7014C8.15858 10.6578 8.16636 10.6142 8.17414 10.5707L8.18503 10.4913C8.19125 10.4508 8.19436 10.4088 8.19747 10.3653L8.20059 10.2843C8.20214 10.2392 8.20214 10.1972 8.20059 10.1568L8.19747 10.0696C8.19436 10.0292 8.19125 9.99026 8.18658 9.95292L8.07611 9.47056C8.07611 9.47056 8.05588 9.41299 8.05432 9.41299L7.99208 9.26672C7.99208 9.26361 7.96719 9.21226 7.96719 9.20915L7.85049 9.00532C7.80536 8.93374 7.78047 8.90106 7.75557 8.86839L7.71356 8.81082C7.65132 8.73457 7.60308 8.68011 7.55018 8.62721L5.75922 6.83625C5.70632 6.78335 5.6503 6.73356 5.59118 6.68532L5.53049 6.6402C5.4807 6.60285 5.44802 6.57796 5.4169 6.55617C5.41379 6.55462 5.34222 6.5126 5.34066 6.51105C5.28776 6.47837 5.2613 6.46126 5.23329 6.44725L5.17883 6.4208C5.10415 6.38501 5.07303 6.36945 5.04191 6.357L4.63579 6.23097C4.60467 6.22474 4.56888 6.21852 4.53154 6.21385L4.43351 6.19829C4.39461 6.19362 4.35416 6.19207 4.31526 6.18896L4.17833 6.18429L4.01962 6.18896C3.9776 6.19207 3.93403 6.19674 3.89202 6.2014L3.81578 6.2123C3.77221 6.22008 3.72553 6.22786 3.68041 6.23719C3.68041 6.23719 3.61661 6.25275 3.61506 6.25275C3.56837 6.26364 3.52325 6.27609 3.47968 6.2901L3.42055 6.31188C3.37232 6.329 3.32564 6.34611 3.27896 6.36634C3.18249 6.41146 3.13425 6.4348 3.08757 6.4597C3.00044 6.50949 2.9522 6.53906 2.90552 6.57173C2.82928 6.62464 2.77948 6.66198 2.73125 6.70244C2.6799 6.74445 2.63011 6.78802 2.58187 6.83625C1.64671 7.72784 1.12701 9.05199 1.11145 10.5753C1.08033 13.4695 2.81216 16.7993 5.9864 19.9487C9.10929 23.0965 12.4127 24.8267 15.2897 24.8267C16.8457 24.8267 18.1963 24.307 19.0926 23.3656C19.1502 23.3081 19.1937 23.2583 19.2357 23.2085C19.2762 23.1587 19.3151 23.1073 19.3509 23.056C19.4007 22.986 19.4287 22.9362 19.4582 22.8864C19.5065 22.8024 19.5283 22.7557 19.5501 22.709M19.5734 22.6592C19.5936 22.6141 19.6107 22.5674 19.6263 22.5207L19.5734 22.6592Z" fill="black"/>
<path d="M12.3122 5.30816C12.1361 5.30816 11.9633 5.22483 11.855 5.06927C11.6806 4.81705 11.7428 4.47094 11.995 4.29594C15.8467 1.62372 20.3695 0.210938 25.0745 0.210938C29.0561 0.210938 32.9795 1.24594 36.4195 3.20372C36.6861 3.35538 36.7795 3.69483 36.6278 3.96149C36.4761 4.22816 36.1345 4.32094 35.8706 4.16983C32.5967 2.30705 28.8639 1.3226 25.0745 1.3226C20.5967 1.3226 16.2928 2.66649 12.6278 5.20927C12.5317 5.27594 12.4211 5.30816 12.3122 5.30816Z" fill="black"/>
<path d="M10.1169 40.4352C9.98469 40.4352 9.85247 40.3885 9.74636 40.2929C4.88914 35.9385 2.10303 29.7024 2.10303 23.1835C2.10303 22.8768 2.35192 22.6279 2.65858 22.6279C2.96525 22.6279 3.21414 22.8768 3.21414 23.1835C3.21414 29.3874 5.86525 35.3224 10.488 39.4668C10.7164 39.6713 10.7358 40.0224 10.5308 40.2513C10.4214 40.3729 10.2697 40.4352 10.1169 40.4352Z" fill="black"/>
<path d="M40.0297 40.4366C39.8775 40.4366 39.7258 40.3744 39.6158 40.2516C39.4113 40.0233 39.4302 39.6722 39.6591 39.4672C43.5013 36.0244 46.0102 31.3294 46.723 26.2466C46.7658 25.9427 47.0463 25.7294 47.3502 25.7733C47.6541 25.8155 47.8663 26.0966 47.8236 26.4005C47.0741 31.7422 44.438 36.6766 40.4008 40.295C40.2941 40.39 40.1619 40.4366 40.0297 40.4366Z" fill="black"/>
<path d="M35.8829 15.1493H35.0385C34.7312 15.1493 34.4829 14.9004 34.4829 14.5937C34.4829 14.287 34.7312 14.0381 35.0385 14.0381H35.8829C36.1901 14.0381 36.4385 14.287 36.4385 14.5937C36.4385 14.9004 36.1901 15.1493 35.8829 15.1493Z" fill="black"/>
<path d="M40.3272 15.1493H39.4828C39.1756 15.1493 38.9272 14.9004 38.9272 14.5937C38.9272 14.287 39.1756 14.0381 39.4828 14.0381H40.3272C40.6345 14.0381 40.8828 14.287 40.8828 14.5937C40.8828 14.9004 40.6345 15.1493 40.3272 15.1493Z" fill="black"/>
<path d="M44.7718 15.1493H43.9274C43.6202 15.1493 43.3718 14.9004 43.3718 14.5937C43.3718 14.287 43.6202 14.0381 43.9274 14.0381H44.7718C45.079 14.0381 45.3274 14.287 45.3274 14.5937C45.3274 14.9004 45.079 15.1493 44.7718 15.1493Z" fill="black"/>
</g>
<defs>
<clipPath id="clip0_130_6805">
<rect width="50" height="50" fill="white"/>
</clipPath>
</defs>
</svg>
