<svg width="51" height="51" viewBox="0 0 51 51" fill="none" xmlns="http://www.w3.org/2000/svg">
<g clip-path="url(#clip0_130_6769)">
<path d="M31.2579 29.828L22.5826 29.6756L19.462 29.6208C18.2144 29.5988 17.1851 30.5926 17.1632 31.8402L17.1514 32.5089L16.9832 42.0836L33.2984 42.3703L33.4667 32.7956L33.4784 32.1268C33.4998 30.8793 32.5061 29.85 31.2579 29.828Z" fill="#C8D4FF"/>
<path d="M47.2907 16.8789C47.2546 18.9347 45.5583 20.5723 43.5025 20.5362C41.4467 20.5001 39.809 18.8038 39.8452 16.748L37.0872 12.0889L42.1747 12.1783L47.2907 16.8789Z" fill="#C8D4FF"/>
<path d="M18.6793 11.7667L15.7593 16.3261C15.7232 18.3819 17.3609 20.0781 19.4167 20.1143C21.4725 20.1504 23.1687 18.5127 23.2049 16.4569L23.2858 11.8476L18.6793 11.7667Z" fill="#C8D4FF"/>
<path d="M32.6673 12.0116L35.4253 16.6708C35.3892 18.7266 33.6929 20.3643 31.6371 20.3281C29.5813 20.292 27.9437 18.5957 27.9798 16.54L28.0608 11.9307L32.6673 12.0116Z" fill="#C8D4FF"/>
<path d="M3.8941 16.1161C3.85798 18.1719 5.49565 19.8682 7.55144 19.9043C9.60724 19.9404 11.3035 18.3028 11.3396 16.247L14.2596 11.6876L9.17207 11.5982L3.8941 16.1161Z" fill="#C8D4FF"/>
<path d="M5.61309 42.4393C5.30647 42.4339 5.06198 42.1812 5.06738 41.8741L5.40918 22.4226C5.41457 22.116 5.6678 21.8715 5.97442 21.8769C6.28103 21.8823 6.52551 22.1355 6.52012 22.4421L6.17832 41.8936C6.17292 42.2008 5.92026 42.4447 5.61309 42.4393Z" fill="black"/>
<path d="M44.6482 43.126C44.341 43.1206 44.0971 42.8679 44.1025 42.5607L44.4443 23.1082C44.4497 22.8016 44.7024 22.5571 45.0096 22.5625C45.3167 22.5679 45.5607 22.8211 45.5553 23.1277L45.2135 42.5802C45.2081 42.8874 44.9548 43.1313 44.6482 43.126Z" fill="black"/>
<path d="M49.4777 48.5384L14.1021 47.9168C13.7955 47.9114 13.551 47.6588 13.5564 47.3516C13.5618 47.0444 13.815 46.8005 14.1216 46.8059L48.9418 47.4177L48.9896 44.6948C49.0041 43.8722 48.3465 43.1905 47.5233 43.1761L2.73802 42.3891C1.91481 42.3746 1.2337 43.0327 1.21924 43.8554L1.1714 46.5783L6.52779 46.6724C6.83441 46.6778 7.0789 46.9305 7.0735 47.2377C7.0681 47.5448 6.81489 47.7888 6.50827 47.7834L0.596404 47.6795C0.289785 47.6741 0.0452972 47.4214 0.050695 47.1143L0.108304 43.8359C0.133526 42.4005 1.32221 41.2529 2.75754 41.2781L47.5434 42.0651C48.9787 42.0904 50.1264 43.279 50.1011 44.7144L50.0435 47.9927C50.0376 48.2999 49.7849 48.5438 49.4777 48.5384Z" fill="black"/>
<path d="M31.5804 23.5555C27.9048 23.4909 24.9673 20.4483 25.0319 16.7728L25.1648 9.20781C25.1702 8.90119 25.4234 8.65672 25.73 8.6621L33.2905 8.79496C33.4833 8.79835 33.6604 8.90147 33.7591 9.06768L38.286 16.7145C38.3378 16.8027 38.3649 16.9043 38.3631 17.007C38.2986 20.6826 35.2559 23.6201 31.5804 23.5555ZM26.266 9.7828L26.1428 16.7923C26.089 19.8551 28.537 22.3908 31.5999 22.4446C34.6117 22.4975 37.113 20.1322 37.2473 17.1413L32.9611 9.90045L26.266 9.7828Z" fill="black"/>
<path d="M43.8009 23.7697C40.1787 23.706 37.2735 20.7506 37.2518 17.1475L32.8032 9.63314C32.7012 9.45965 32.7 9.2446 32.8014 9.0708C32.9028 8.897 33.0902 8.79138 33.2913 8.79492L41.6417 8.94165C41.7772 8.94403 41.9074 8.99633 42.0075 9.0881L50.4038 16.8029C50.5214 16.9094 50.5865 17.0623 50.5837 17.2211C50.5191 20.8967 47.4765 23.8342 43.8009 23.7697ZM34.2655 9.92276L38.2857 16.7133C38.3381 16.802 38.3652 16.9036 38.3634 17.0064C38.3095 20.0693 40.7576 22.6049 43.8205 22.6587C46.8011 22.7111 49.2828 20.3938 49.4629 17.4465L41.4105 10.0483L34.2655 9.92276Z" fill="black"/>
<path d="M19.3602 23.3407C15.6846 23.2761 12.7471 20.2335 12.8117 16.5579C12.8135 16.4552 12.8436 16.3546 12.899 16.2683L17.6917 8.78523C17.7957 8.62314 17.9763 8.52575 18.1697 8.52914L25.7302 8.662C26.0368 8.66739 26.2812 8.92061 26.2759 9.22723L26.1429 16.7922C26.0783 20.4677 23.0357 23.4053 19.3602 23.3407ZM13.9221 16.7313C13.9512 19.7245 16.3685 22.1768 19.3797 22.2297C22.4425 22.2836 24.9782 19.8355 25.032 16.7727L25.1552 9.76318L18.4606 9.64554L13.9221 16.7313Z" fill="black"/>
<path d="M7.1397 23.1258C3.46416 23.0612 0.526605 20.0186 0.591193 16.3431C0.593984 16.1842 0.664972 16.0338 0.785132 15.9309L9.44786 8.5158C9.5511 8.42705 9.68306 8.37991 9.81915 8.3823L18.1695 8.52904C18.3706 8.53257 18.5542 8.64471 18.6495 8.82196C18.7447 8.99922 18.7359 9.21465 18.6279 9.38389L13.918 16.7373C13.7691 20.338 10.7619 23.1895 7.1397 23.1258ZM1.70338 16.6077C1.77987 19.5595 4.17857 21.9625 7.15922 22.0149C10.2221 22.0687 12.7577 19.6207 12.8115 16.5578C12.8133 16.455 12.8434 16.3544 12.8989 16.2682L17.1552 9.62305L10.0101 9.4975L1.70338 16.6077Z" fill="black"/>
<path d="M50.0184 17.7668L1.13702 16.9078C0.830403 16.9024 0.585925 16.6492 0.591313 16.3426C0.596701 16.036 0.849925 15.7915 1.15654 15.7969L50.0379 16.6558C50.3451 16.6612 50.589 16.9144 50.5836 17.2211C50.5782 17.5277 50.3255 17.7722 50.0184 17.7668Z" fill="black"/>
<path d="M41.7114 10.0533L9.7997 9.49258C9.49308 9.48719 9.2486 9.23397 9.25399 8.92735L9.32191 5.06239C9.34701 3.63372 10.5295 2.4921 11.9581 2.5172L39.7994 3.00644C41.2275 3.03153 42.3697 4.21401 42.3446 5.64267L42.2767 9.50763C42.2713 9.81425 42.0181 10.0587 41.7114 10.0533ZM10.3747 8.3914L41.1755 8.93264L41.2336 5.62315C41.248 4.80717 40.5959 4.13172 39.7799 4.11738L11.9386 3.62814C11.1226 3.61381 10.4472 4.26593 10.4328 5.08191L10.3747 8.3914Z" fill="black"/>
<path d="M36.0655 42.9746C35.7583 42.9692 35.5144 42.7165 35.5198 42.4093L35.7486 29.3886C35.7651 28.4493 35.0142 27.6715 34.0749 27.655L25.9545 27.5123L25.8896 31.2017C25.8842 31.5089 25.631 31.7528 25.3244 31.7474C25.0178 31.742 24.7733 31.4894 24.7787 31.1822L24.8533 26.9373C24.8587 26.6301 25.1119 26.3862 25.4185 26.3916L34.0938 26.544C35.6458 26.5713 36.8862 27.8561 36.8589 29.4081L36.6301 42.4288C36.6253 42.736 36.3721 42.9799 36.0655 42.9746Z" fill="black"/>
<path d="M25.1305 42.7821C24.8239 42.7767 24.5794 42.524 24.5848 42.2168L24.6975 35.8045C24.7029 35.4973 24.9561 35.2534 25.2627 35.2588C25.5694 35.2642 25.8139 35.5168 25.8085 35.824L25.6958 42.2364C25.6904 42.5435 25.4372 42.7875 25.1305 42.7821Z" fill="black"/>
<path d="M28.2137 37.6625C27.9065 37.6571 27.6626 37.4045 27.668 37.0973L27.6892 35.8875C27.6946 35.5803 27.9473 35.3364 28.2544 35.3418C28.5616 35.3472 28.8056 35.5998 28.8002 35.907L28.7789 37.1168C28.7735 37.424 28.5203 37.6679 28.2137 37.6625Z" fill="black"/>
<path d="M14.1957 42.59C13.889 42.5846 13.6446 42.332 13.65 42.0248L13.8788 29.004C13.906 27.452 15.1908 26.2116 16.7428 26.2389L25.4187 26.3914C25.7253 26.3968 25.9698 26.6494 25.9644 26.9566L25.8898 31.2015C25.8844 31.5087 25.6312 31.7526 25.3246 31.7472C25.0179 31.7418 24.7735 31.4891 24.7788 31.182L24.8437 27.4925L16.7233 27.3499C15.784 27.3333 15.0062 28.0842 14.9897 29.0235L14.7609 42.0443C14.7555 42.3515 14.5023 42.5954 14.1957 42.59Z" fill="black"/>
<path d="M25.1305 42.7821C24.8239 42.7767 24.5794 42.524 24.5848 42.2168L24.6975 35.8045C24.7029 35.4973 24.9561 35.2534 25.2627 35.2588C25.5694 35.2642 25.8139 35.5168 25.8085 35.824L25.6958 42.2364C25.6904 42.5435 25.4372 42.7875 25.1305 42.7821Z" fill="black"/>
<path d="M22.2298 37.557C21.9232 37.5517 21.6787 37.299 21.6841 36.9918L21.7053 35.782C21.7107 35.4748 21.9639 35.2309 22.2706 35.2363C22.5772 35.2417 22.8217 35.4943 22.8163 35.8015L22.795 37.0113C22.7896 37.3185 22.5364 37.5624 22.2298 37.557Z" fill="black"/>
</g>
<defs>
<clipPath id="clip0_130_6769">
<rect width="50" height="50" fill="white" transform="translate(0.878418) rotate(1.00671)"/>
</clipPath>
</defs>
</svg>
