<svg width="51" height="51" viewBox="0 0 51 51" fill="none" xmlns="http://www.w3.org/2000/svg">
<path d="M44.7934 46.1471H5.82447C5.32002 46.1471 4.91113 45.7382 4.91113 45.2338V6.2649C4.91113 5.76045 5.32002 5.35156 5.82447 5.35156H44.7934C45.2978 5.35156 45.7067 5.76045 45.7067 6.2649V45.2338C45.7067 45.7382 45.2978 46.1471 44.7934 46.1471Z" fill="#C8D4FF"/>
<path d="M49.7533 41.0774C49.446 41.0774 49.1977 40.829 49.1977 40.5218V1.86013H32.0944C31.7872 1.86013 31.5388 1.61125 31.5388 1.30458C31.5388 0.997912 31.7872 0.749023 32.0944 0.749023H49.7533C50.0605 0.749023 50.3088 0.997912 50.3088 1.30458V40.5218C50.3088 40.829 50.0605 41.0774 49.7533 41.0774Z" fill="black"/>
<path d="M40.1449 50.749H0.864393C0.557727 50.749 0.308838 50.5007 0.308838 50.1935V1.30458C0.308838 0.997912 0.557727 0.749023 0.864393 0.749023H12.9683C13.2749 0.749023 13.5238 0.997912 13.5238 1.30458C13.5238 1.61125 13.2749 1.86013 12.9683 1.86013H1.41995V49.6379H40.1449C40.4522 49.6379 40.7005 49.8862 40.7005 50.1935C40.7005 50.5007 40.4522 50.749 40.1449 50.749Z" fill="black"/>
<path d="M32.0944 15.4307C31.9771 15.4307 31.861 15.394 31.7633 15.3212L25.3088 10.529L18.8549 15.3212C18.6866 15.4474 18.4616 15.4662 18.2744 15.3718C18.0866 15.2774 17.9683 15.0851 17.9683 14.8751V1.30458C17.9683 0.997912 18.2171 0.749023 18.5238 0.749023H25.3088C25.6155 0.749023 25.8644 0.997912 25.8644 1.30458C25.8644 1.61125 25.6155 1.86013 25.3088 1.86013H19.0794V13.7707L24.9777 9.39125C25.1744 9.24513 25.4433 9.24513 25.6399 9.39125L31.5388 13.7707V1.30458C31.5388 0.997912 31.7871 0.749023 32.0944 0.749023C32.4016 0.749023 32.6499 0.997912 32.6499 1.30458V14.8751C32.6499 15.0851 32.5316 15.2774 32.3438 15.3718C32.2649 15.4112 32.1794 15.4307 32.0944 15.4307Z" fill="black"/>
<path d="M17.2977 38.8347H8.07655C7.76989 38.8347 7.521 38.5864 7.521 38.2792C7.521 37.972 7.76989 37.7236 8.07655 37.7236H17.2977C17.6043 37.7236 17.8532 37.972 17.8532 38.2792C17.8532 38.5864 17.6043 38.8347 17.2977 38.8347Z" fill="black"/>
<path d="M17.2977 43.873H8.07655C7.76989 43.873 7.521 43.6246 7.521 43.3174C7.521 43.0102 7.76989 42.7618 8.07655 42.7618H17.2977C17.6043 42.7618 17.8532 43.0102 17.8532 43.3174C17.8532 43.6246 17.6043 43.873 17.2977 43.873Z" fill="black"/>
<path d="M32.6294 38.9318C32.3361 38.9318 32.0905 38.7018 32.075 38.4051C32.0594 38.0985 32.295 37.8374 32.6011 37.8212C34.0694 37.7457 35.4717 37.1518 36.5505 36.1496C37.7805 35.0068 38.4917 33.454 38.5528 31.7768C38.6144 30.099 38.0194 28.4985 36.8767 27.2685C35.7339 26.039 34.1805 25.3274 32.5039 25.2657C30.8228 25.2129 29.2255 25.7996 27.9955 26.9418C25.4572 29.3001 25.3105 33.2846 27.6689 35.8229C27.8778 36.0474 27.865 36.399 27.64 36.6079C27.4161 36.8157 27.065 36.8046 26.855 36.579C24.0794 33.5918 24.2517 28.9035 27.2389 26.1274C28.6855 24.7835 30.5567 24.0807 32.5444 24.1546C34.5183 24.2274 36.3461 25.064 37.6905 26.5112C39.035 27.9585 39.7361 29.8424 39.6633 31.8168C39.5905 33.7907 38.7533 35.6185 37.3067 36.9629C36.0372 38.1429 34.3861 38.8412 32.6583 38.9307C32.6489 38.9318 32.6389 38.9318 32.6294 38.9318Z" fill="black"/>
<path d="M47.575 50.749C47.5411 50.749 47.5072 50.7485 47.4722 50.7474C46.7422 50.7202 46.0661 50.4113 45.5683 49.8757L37.5366 41.2313C33.205 43.5852 27.6966 42.739 24.2772 39.1363C20.2644 34.9068 20.295 28.0652 24.3444 23.8857C26.4489 21.7135 29.2589 20.5213 32.2677 20.5213C32.3072 20.5213 32.3472 20.5213 32.3872 20.5218C35.4427 20.554 38.2711 21.804 40.35 24.0418C43.7694 27.7224 44.2439 33.3146 41.5461 37.5063L49.5766 46.1507C50.0744 46.6863 50.3333 47.3829 50.3066 48.1129C50.2794 48.8435 49.9705 49.5196 49.435 50.0168C48.9255 50.4913 48.2677 50.749 47.575 50.749ZM37.6444 39.9746C37.795 39.9746 37.9433 40.0352 38.0511 40.1518L46.3822 49.119C46.6777 49.4368 47.0794 49.6207 47.5127 49.6368C47.9433 49.6457 48.36 49.499 48.6789 49.2035C48.9966 48.9085 49.1805 48.5068 49.1966 48.0735C49.2122 47.6396 49.0589 47.2257 48.7633 46.9074L40.4327 37.9402C40.2544 37.7479 40.2344 37.4568 40.3855 37.2424C43.0605 33.4407 42.7039 28.2074 39.5366 24.7985C37.6672 22.7857 35.1239 21.6618 32.3755 21.6329C29.6411 21.6052 27.0611 22.679 25.1427 24.6585C21.5016 28.4163 21.4755 34.5674 25.0839 38.3707C28.2516 41.709 33.4144 42.4168 37.3589 40.0535C37.4477 40.0007 37.5461 39.9746 37.6444 39.9746Z" fill="black"/>
</svg>
