<svg width="48" height="55" viewBox="0 0 48 55" fill="none" xmlns="http://www.w3.org/2000/svg">
<path d="M23.9414 42.915C31.0178 42.915 36.7543 37.1784 36.7543 30.102C36.7543 23.0256 31.0178 17.2891 23.9414 17.2891C16.865 17.2891 11.1284 23.0256 11.1284 30.102C11.1284 37.1784 16.865 42.915 23.9414 42.915Z" fill="#C8D4FF"/>
<path d="M23.9412 47.1814C19.9415 47.1814 16.0526 45.7699 12.9907 43.2056C12.7373 42.9936 12.7038 42.6157 12.9158 42.3624C13.1278 42.1079 13.5051 42.0744 13.7596 42.2876C16.6065 44.6704 20.2224 45.9837 23.9412 45.9837C32.6916 45.9837 39.8107 38.8645 39.8107 30.1142C39.8107 21.3638 32.6916 14.2447 23.9412 14.2447C15.3908 14.2447 8.39809 21.041 8.0831 29.5153H10.6839C11.0145 29.5153 11.2827 29.783 11.2827 30.1142C11.2827 30.4453 11.0145 30.713 10.6839 30.713H7.47287C7.14231 30.713 6.87402 30.4453 6.87402 30.1142C6.87402 20.7033 14.5303 13.047 23.9412 13.047C33.3521 13.047 41.0084 20.7033 41.0084 30.1142C41.0084 39.5251 33.3521 47.1814 23.9412 47.1814Z" fill="black"/>
<path d="M23.9414 54.0555C10.7403 54.0555 0 43.3152 0 30.1142C0 18.578 8.12398 8.77481 19.3907 6.61117V4.92362H16.7875C16.4569 4.92362 16.1887 4.65533 16.1887 4.32477C16.1887 2.02759 18.0571 0.15918 20.3543 0.15918H27.5285C29.8256 0.15918 31.694 2.02759 31.694 4.32477C31.694 4.65533 31.4264 4.92362 31.0952 4.92362H28.4914V6.61117C39.7593 8.77421 47.8827 18.5762 47.8827 30.1142C47.8827 43.3152 37.143 54.0555 23.9414 54.0555ZM20.5884 7.04114C20.589 7.04713 20.5896 7.05372 20.5902 7.05911C20.6165 7.36931 20.4046 7.64778 20.0979 7.69988C9.14621 9.56469 1.1977 18.9912 1.1977 30.1142C1.1977 42.6552 11.4003 52.8578 23.9414 52.8578C36.4824 52.8578 46.685 42.6552 46.685 30.1142C46.685 18.9888 38.7341 9.56229 27.7788 7.69928C27.4722 7.64718 27.2566 7.36871 27.2829 7.05851C27.2847 7.03276 27.2889 7.00701 27.2943 6.98246V4.32477C27.2943 3.9942 27.562 3.72592 27.8932 3.72592H30.4359C30.158 2.37552 28.9603 1.35688 27.5285 1.35688H20.3543C18.923 1.35688 17.7247 2.37552 17.4474 3.72592H19.9902C20.3207 3.72592 20.589 3.9942 20.589 4.32477V7.04114H20.5884Z" fill="black"/>
<path d="M37.7536 30.7133H37.1985C36.8673 30.7133 36.5996 30.4456 36.5996 30.1145C36.5996 29.7833 36.8673 29.5156 37.1985 29.5156H37.7536C38.0848 29.5156 38.3524 29.7833 38.3524 30.1145C38.3524 30.4456 38.0848 30.7133 37.7536 30.7133Z" fill="black"/>
<path d="M23.9414 17.4551C23.6108 17.4551 23.3425 17.1868 23.3425 16.8563V16.3011C23.3425 15.9706 23.6108 15.7023 23.9414 15.7023C24.2719 15.7023 24.5402 15.9706 24.5402 16.3011V16.8563C24.5402 17.1874 24.2719 17.4551 23.9414 17.4551Z" fill="black"/>
<path d="M23.9414 44.5255C23.6108 44.5255 23.3425 44.2578 23.3425 43.9266V43.3715C23.3425 43.0403 23.6108 42.7726 23.9414 42.7726C24.2719 42.7726 24.5402 43.0403 24.5402 43.3715V43.9266C24.5402 44.2578 24.2719 44.5255 23.9414 44.5255Z" fill="black"/>
<path d="M23.9977 36.1C22.9577 36.1 22.1444 35.8933 21.5577 35.48C20.9844 35.0533 20.5777 34.48 20.3377 33.76C20.0977 33.04 19.9777 32.2333 19.9777 31.34C19.9777 30.58 20.0711 29.86 20.2577 29.18C20.4577 28.5 20.7311 27.9 21.0777 27.38C21.4377 26.86 21.8644 26.4533 22.3577 26.16C22.8511 25.8533 23.3977 25.7 23.9977 25.7C24.5977 25.7 25.1444 25.8533 25.6377 26.16C26.1311 26.4533 26.5511 26.86 26.8977 27.38C27.2577 27.9 27.5311 28.5 27.7177 29.18C27.9177 29.86 28.0177 30.58 28.0177 31.34C28.0177 32.2333 27.8977 33.04 27.6577 33.76C27.4311 34.48 27.0244 35.0533 26.4377 35.48C25.8511 35.8933 25.0377 36.1 23.9977 36.1ZM23.9977 34.48C24.5177 34.48 24.9377 34.4 25.2577 34.24C25.5777 34.0667 25.8177 33.84 25.9777 33.56C26.1511 33.28 26.2644 32.9733 26.3177 32.64C26.3844 32.2933 26.4177 31.9533 26.4177 31.62C26.4177 31.0733 26.3644 30.5467 26.2577 30.04C26.1644 29.5333 26.0177 29.08 25.8177 28.68C25.6177 28.2667 25.3644 27.94 25.0577 27.7C24.7511 27.46 24.3977 27.34 23.9977 27.34C23.5977 27.34 23.2444 27.46 22.9377 27.7C22.6311 27.94 22.3777 28.2667 22.1777 28.68C21.9777 29.08 21.8244 29.5333 21.7177 30.04C21.6244 30.5467 21.5777 31.0733 21.5777 31.62C21.5777 32.0733 21.6311 32.52 21.7377 32.96C21.8577 33.4 22.0911 33.7667 22.4377 34.06C22.7844 34.34 23.3044 34.48 23.9977 34.48Z" fill="black"/>
</svg>
