<svg width="87" height="58" viewBox="0 0 87 58" fill="none" xmlns="http://www.w3.org/2000/svg">
<mask id="path-1-inside-1_130_6884" fill="white">
<path fill-rule="evenodd" clip-rule="evenodd" d="M11.5734 43.1678C5.18159 43.1678 0 37.5248 0 30.5639C0 23.6029 5.18159 17.96 11.5734 17.96C11.8424 17.96 12.1092 17.97 12.3736 17.9896C14.0645 13.3112 18.2506 10 23.1468 10C29.0226 10 33.8756 14.7685 34.621 20.9458C34.633 20.9457 34.6451 20.9456 34.6571 20.9455C34.6781 20.9454 34.6991 20.9453 34.7201 20.9453C40.355 20.9453 44.923 25.92 44.923 32.0567C44.923 38.1933 40.355 43.168 34.7201 43.168C34.7002 43.168 34.6802 43.1679 34.6603 43.1678L11.5734 43.1678Z"/>
</mask>
<path fill-rule="evenodd" clip-rule="evenodd" d="M11.5734 43.1678C5.18159 43.1678 0 37.5248 0 30.5639C0 23.6029 5.18159 17.96 11.5734 17.96C11.8424 17.96 12.1092 17.97 12.3736 17.9896C14.0645 13.3112 18.2506 10 23.1468 10C29.0226 10 33.8756 14.7685 34.621 20.9458C34.633 20.9457 34.6451 20.9456 34.6571 20.9455C34.6781 20.9454 34.6991 20.9453 34.7201 20.9453C40.355 20.9453 44.923 25.92 44.923 32.0567C44.923 38.1933 40.355 43.168 34.7201 43.168C34.7002 43.168 34.6802 43.1679 34.6603 43.1678L11.5734 43.1678Z" fill="#C8D4FF"/>
<path d="M11.5734 43.1678L11.5734 42.1678H11.5734V43.1678ZM12.3736 17.9896L12.2994 18.9869L13.0561 19.0431L13.314 18.3295L12.3736 17.9896ZM34.621 20.9458L33.6282 21.0656L33.7355 21.9551L34.6314 21.9458L34.621 20.9458ZM34.6571 20.9455L34.6505 19.9455H34.6505L34.6571 20.9455ZM34.6603 43.1678L34.6666 42.1678H34.6603V43.1678ZM11.5734 42.1678C5.81246 42.1678 1 37.0546 1 30.5639H-1C-1 37.9951 4.55072 44.1678 11.5734 44.1678V42.1678ZM1 30.5639C1 24.0732 5.81246 18.96 11.5734 18.96V16.96C4.55072 16.96 -1 23.1326 -1 30.5639H1ZM11.5734 18.96C11.8176 18.96 12.0597 18.969 12.2994 18.9869L12.4477 16.9924C12.1587 16.9709 11.8672 16.96 11.5734 16.96V18.96ZM13.314 18.3295C14.8816 13.9924 18.7273 11 23.1468 11V9C17.7738 9 13.2473 12.6301 11.4331 17.6497L13.314 18.3295ZM23.1468 11C28.4454 11 32.9345 15.3166 33.6282 21.0656L35.6138 20.826C34.8167 14.2204 29.5997 9 23.1468 9V11ZM34.6314 21.9458C34.6421 21.9457 34.6529 21.9456 34.6638 21.9455L34.6505 19.9455C34.6372 19.9456 34.6239 19.9457 34.6106 19.9459L34.6314 21.9458ZM34.6637 21.9455C34.6825 21.9454 34.7013 21.9453 34.7201 21.9453V19.9453C34.6969 19.9453 34.6737 19.9454 34.6505 19.9455L34.6637 21.9455ZM34.7201 21.9453C39.7241 21.9453 43.923 26.3903 43.923 32.0567H45.923C45.923 25.4498 40.9859 19.9453 34.7201 19.9453V21.9453ZM43.923 32.0567C43.923 37.723 39.7241 42.168 34.7201 42.168V44.168C40.9859 44.168 45.923 38.6636 45.923 32.0567H43.923ZM34.7201 42.168C34.7022 42.168 34.6844 42.168 34.6666 42.1678L34.654 44.1678C34.6761 44.1679 34.6981 44.168 34.7201 44.168V42.168ZM34.6603 42.1678L11.5734 42.1678L11.5734 44.1678L34.6603 44.1678V42.1678Z" fill="black" mask="url(#path-1-inside-1_130_6884)"/>
<path d="M54.6604 42.6165C62.1383 44.8006 69.9709 40.509 72.1549 33.0311C74.339 25.5532 70.0474 17.7206 62.5695 15.5366C55.0916 13.3525 47.259 17.6441 45.075 25.122C42.8909 32.5999 47.1825 40.4325 54.6604 42.6165Z" fill="#C8D4FF"/>
<path d="M52.1454 51.2272C51.0604 50.9108 50.0909 50.1987 49.4764 49.1617C48.8216 48.058 47.6179 47.387 46.3353 47.4104C43.9252 47.4565 41.8742 45.609 41.6664 43.2072C41.5559 41.9285 40.7624 40.802 39.596 40.2668C37.405 39.2609 36.3583 36.7077 37.213 34.4544C37.6683 33.2539 37.4423 31.895 36.6236 30.9063C35.0864 29.0501 35.251 26.295 36.9987 24.6354C37.9294 23.7516 38.3158 22.4289 38.007 21.1832C37.4273 18.8438 38.7707 16.4335 41.0659 15.6961C42.2881 15.3035 43.2101 14.2794 43.4723 13.023C43.9649 10.6634 46.2213 9.07486 48.6091 9.40684C49.8802 9.58363 51.1549 9.06053 51.9368 8.0425C53.405 6.13077 56.1269 5.67934 58.134 7.01296C59.2017 7.72336 60.5779 7.80582 61.7238 7.228C63.8759 6.1427 66.5257 6.91662 67.7539 8.98919C68.4091 10.0936 69.6133 10.7647 70.8952 10.7401C73.3056 10.6966 75.356 12.5424 75.5644 14.9438C75.6745 16.2224 76.4684 17.3491 77.6348 17.8848C79.8254 18.89 80.8721 21.4433 80.0177 23.6972C79.5625 24.8972 79.7884 26.2566 80.6072 27.2453C82.1443 29.1014 81.9798 31.856 80.2315 33.516C79.3013 34.3999 78.9148 35.7231 79.2232 36.9682C79.8034 39.3078 78.4593 41.7184 76.1648 42.4555C74.9426 42.8481 74.0207 43.8717 73.7584 45.1285C73.2647 47.4883 71.0088 49.0771 68.6216 48.7447C67.3505 48.5679 66.0753 49.0909 65.2935 50.1084C63.8259 52.0203 61.1044 52.474 59.0969 51.1381C58.0278 50.4284 56.6528 50.3457 55.5069 50.9236C54.4306 51.4661 53.2304 51.5441 52.1454 51.2272ZM47.6871 46.5684C48.7917 46.891 49.7562 47.622 50.3589 48.6389C51.3143 50.2499 53.3729 50.8511 55.0447 50.0075C56.5192 49.2628 58.2902 49.3692 59.6647 50.2841C61.2279 51.3214 63.3399 50.9696 64.4797 49.4834C65.4858 48.1734 67.1268 47.5009 68.7624 47.7286C70.6173 47.9866 72.3707 46.7518 72.7539 44.9185C73.0916 43.3011 74.278 41.9829 75.8507 41.4785C77.6341 40.9057 78.6779 39.033 78.2275 37.2149C77.8306 35.6121 78.3279 33.9094 79.525 32.7723C80.8832 31.4823 81.0114 29.3422 79.8166 27.8996C78.7628 26.6275 78.4724 24.878 79.0581 23.3336C79.7218 21.5823 78.9085 19.5983 77.2065 18.817C75.7056 18.128 74.684 16.6778 74.5416 15.0324C74.3803 13.1667 72.7902 11.7332 70.9143 11.7666C69.2638 11.7969 67.7139 10.9334 66.8717 9.51311C65.9164 7.90171 63.8577 7.30095 62.1859 8.14456C60.711 8.88859 58.9415 8.78263 57.5659 7.86797C56.0061 6.83009 53.8907 7.18244 52.7505 8.66801C51.7449 9.97812 50.1039 10.6507 48.4681 10.4235C46.6127 10.1658 44.8594 11.4001 44.4772 13.2337C44.1396 14.8506 42.9527 16.1686 41.3804 16.6737C39.597 17.2465 38.5532 19.1192 39.0036 20.9373C39.4008 22.5407 38.9035 24.2434 37.706 25.3799C36.3479 26.6699 36.2202 28.8102 37.4144 30.2526C38.4684 31.5242 38.7588 33.2737 38.173 34.8186C37.5087 36.5698 38.322 38.5538 40.0241 39.3351C41.5251 40.0235 42.5461 41.4741 42.6886 43.119C42.8503 44.9853 44.4447 46.4185 46.3162 46.3855C46.7859 46.3762 47.2475 46.44 47.6871 46.5684Z" fill="black"/>
<path d="M53.7977 45.5697C49.7075 44.3751 46.2246 41.7215 43.9907 38.097C43.842 37.8559 43.9171 37.5402 44.1582 37.3916C44.3993 37.243 44.7147 37.3174 44.8636 37.5592C46.9643 40.9668 50.2392 43.4619 54.0852 44.5852C62.6372 47.0829 71.6268 42.1574 74.1245 33.6055C76.6222 25.0536 71.6967 16.064 63.1448 13.5662C54.5928 11.0685 45.6032 15.994 43.1055 24.5459C42.4872 26.6631 42.3067 28.8377 42.5693 31.0081C42.603 31.2893 42.4028 31.545 42.1216 31.5788C41.8399 31.6141 41.5853 31.412 41.5509 31.1311C41.2717 28.8218 41.4635 26.5095 42.1212 24.2579C44.7775 15.163 54.3376 9.92493 63.4325 12.5812C72.5274 15.2375 77.7654 24.7976 75.1091 33.8926C72.4532 42.9881 62.8926 48.226 53.7977 45.5697Z" fill="black"/>
</svg>
